<svg width="18" height="18" viewBox="0 0 18 18" fill="none" xmlns="http://www.w3.org/2000/svg">
<path d="M0 0H3.6V3.6C1.61178 3.6 0 1.98822 0 0Z" fill="#3EC6E0"/>
<path d="M7.2002 0H10.8002V3.6C8.81197 3.6 7.2002 1.98822 7.2002 0Z" fill="#3EC6E0"/>
<path d="M14.3999 0H17.9999V3.6C16.0117 3.6 14.3999 1.98822 14.3999 0Z" fill="#3EC6E0"/>
<path d="M14.3999 7.20001H17.9999V10.8C16.0117 10.8 14.3999 9.18824 14.3999 7.20001Z" fill="#3EC6E0"/>
<path d="M7.2002 7.20001H10.8002V10.8C8.81197 10.8 7.2002 9.18824 7.2002 7.20001Z" fill="#3EC6E0"/>
<path d="M0 7.20001H3.6V10.8C1.61178 10.8 0 9.18824 0 7.20001Z" fill="#3EC6E0"/>
<path d="M0 14.4H3.6V18C1.61178 18 0 16.3882 0 14.4Z" fill="#3EC6E0"/>
<path d="M7.2002 14.4H10.8002V18C8.81197 18 7.2002 16.3882 7.2002 14.4Z" fill="#3EC6E0"/>
<path d="M14.3999 14.4H17.9999V18C16.0117 18 14.3999 16.3882 14.3999 14.4Z" fill="#3EC6E0"/>
</svg>
